<?xml version="1.0" encoding="utf-8"?>
<!-- Generator: Adobe Illustrator 21.0.2, SVG Export Plug-In . SVG Version: 6.00 Build 0)  -->
<svg version="1.1" id="Layer_1" xmlns="http://www.w3.org/2000/svg" xmlns:xlink="http://www.w3.org/1999/xlink" x="0px" y="0px"
	 viewBox="0 0 56.7 56.7" style="enable-background:new 0 0 56.7 56.7;" xml:space="preserve">
<style type="text/css">
	.st0{fill:#2D2D2D;}
</style>
<g>
	<path class="st0" d="M13.9,35.3c0,0-0.1-0.1-0.1-0.1c-1.3-1-2.1-2.4-2.4-4c0-0.1,0-0.2-0.1-0.3c-0.1-0.1-0.2,0-0.3,0
		c-1.3-0.1-2.3-1.2-2.3-2.5c0-4,0-8.1,0-12.1c0-1.1,0.7-2.1,1.8-2.4c0.1,0,0.1-0.1,0.1-0.2c0-1,0-1.9,0-2.9c0-0.1,0-0.1-0.1-0.2
		c-0.2-0.2-0.4-0.4-0.6-0.7C9.5,9.4,9.3,8.7,9.5,8c0.2-0.7,0.7-1.1,1.4-1.3c0.7-0.1,1.3,0,1.8,0.5c0.4,0.4,0.8,0.8,1.2,1.2
		c0.4,0.4,0.6,0.9,0.6,1.4c0,1.2,0,2.4,0,3.6c0,0.2,0,0.2,0.2,0.2c0.3,0,0.7,0,1,0c0.1,0,0.1,0,0.1-0.2c0-2.9,0-5.8,0-8.7
		C15.8,4,16.2,3.4,17,3c0.2-0.1,0.5-0.2,0.8-0.2c2.9,0,5.7,0,8.6,0c0.8,0,1.5,0.4,1.8,1.2c1.3,3.1,2.6,6.3,3.9,9.4
		c0,0.1,0.1,0.2,0.2,0.2c0.5,0,0.9,0,1.4,0c1.4,0,2.4,1.2,2.4,2.5c0,1.4,0,2.9,0,4.3c0,0.1,0,0.2,0.1,0.2c0.3,0.1,0.7,0.1,1,0.2
		c0,0,0.1,0,0.1,0c0-0.1,0-0.1,0-0.2c0-0.4,0-0.8,0-1.2c0-0.8,0.7-1.4,1.5-1.3c0.7,0.1,1.3,0.3,2,0.4c0.5,0.1,0.9,0.4,1,0.9
		c1.6,5.1,3.1,10.1,4.7,15.2c0.1,0.4,0.1,0.8-0.1,1.1c-0.2,0.4-0.6,0.6-1,0.6c-0.1,0-0.1,0-0.2,0c-10.9,0-21.8,0-32.6,0
		c-0.3,0-0.5-0.1-0.6-0.3c-0.3-0.4,0-0.9,0.5-1c0.4,0,0.8,0,1.2,0C13.8,35.3,13.8,35.3,13.9,35.3C13.9,35.3,13.9,35.3,13.9,35.3z
		 M34.9,20.4c0,0,0-0.1,0-0.1c0-0.7,0-1.4,0-2.1c0-0.1,0-0.1-0.1-0.1c-0.4,0-0.9,0-1.3,0c-0.2,0-0.4,0-0.6,0c-0.5,0-0.7-0.6-0.5-1
		c0.1-0.2,0.3-0.3,0.6-0.3c0.6,0,1.2,0,1.8,0c0.1,0,0.1,0,0.1-0.1c0-0.2,0-0.3,0-0.5c0-0.5-0.2-0.9-0.7-1.1
		c-0.2-0.1-0.5-0.1-0.7-0.1c-7.3,0-14.7,0-22,0c0,0-0.1,0-0.1,0c-0.8,0-1.3,0.6-1.3,1.3c0,0.1,0,0.3,0,0.4c0,0.1,0,0.1,0.1,0.1
		c0.5,0,1.1,0,1.6,0c0.1,0,0.2,0,0.3,0c0.4,0.1,0.7,0.6,0.4,0.9c-0.1,0.2-0.3,0.3-0.6,0.3c-0.6,0-1.1,0-1.7,0c-0.1,0-0.2,0-0.2,0.2
		c0,2.2,0,4.5,0,6.7c0,0.2,0,0.2,0.2,0.2c1.1,0,2.2,0,3.3,0c0.2,0,0.4,0,0.5-0.1c0,0,0.1,0,0.1-0.1c2.2-1.5,5.1-1.4,7.2,0.2
		c0,0,0.1,0.1,0.2,0.1c2.1,0,4.1,0,6.2,0c0.1,0,0.1,0,0.2-0.1c0.3-0.2,0.6-0.4,0.9-0.5c0,0,0.1,0,0.1-0.1c-0.1-0.1-0.3-0.1-0.4-0.1
		c-2.7-0.5-5.4-1.1-8.1-1.6c-1.1-0.2-1.9-1-2-2.1c-0.2-1,0.3-2.1,1.3-2.6c0.6-0.3,1.2-0.4,1.9-0.3c4.4,0.9,8.8,1.7,13.2,2.6
		C34.8,20.4,34.8,20.4,34.9,20.4z M38.7,19.5c0,0.1,0,0.1,0,0.1c0,5.2,0,10.3,0,15.5c0,0.1,0,0.2,0.1,0.2c2.2,0,4.3,0,6.5,0
		c0,0,0.1,0,0.1,0c0-0.1,0-0.1,0-0.2c-0.3-1-0.6-2-0.9-3c-1.2-4-2.5-8.1-3.7-12.1c0-0.1-0.1-0.2-0.2-0.2c-0.6-0.1-1.2-0.2-1.8-0.3
		C38.8,19.5,38.8,19.5,38.7,19.5z M30.8,13.7c0-0.1,0-0.1-0.1-0.2c-0.7-1.6-1.3-3.3-2-4.9C28.4,8,28.2,7.4,28,6.8
		c0-0.1-0.1-0.1-0.2-0.1c-2.7,0-5.3,0-8,0c-0.1,0-0.1,0-0.1,0.1c0,2.2,0,4.5,0,6.7c0,0.1,0,0.1,0.1,0.1c1.6,0,3.2,0,4.8,0
		c0.1,0,0.1,0,0.1-0.1c0-0.6,0-1.2,0-1.8c0-0.2,0.1-0.3,0.2-0.5c0.2-0.2,0.5-0.2,0.7-0.1c0.3,0.1,0.4,0.3,0.4,0.6c0,0.6,0,1.2,0,1.8
		c0,0.1,0,0.1,0.1,0.1c0.3,0,0.7,0,1,0c0.1,0,0.1,0,0.1-0.1c0-0.6,0-1.2,0-1.7c0-0.1,0-0.2,0-0.3c0.1-0.3,0.4-0.4,0.7-0.4
		c0.3,0.1,0.5,0.3,0.5,0.6c0,0.6,0,1.2,0,1.7c0,0.1,0,0.2,0.1,0.2c0.7,0,1.3,0,2,0C30.7,13.7,30.7,13.7,30.8,13.7z M17.7,35.3
		c2.8,0,5.1-2.3,5.1-5.1c0-2.8-2.3-5.1-5.1-5.1c-2.8,0-5.1,2.3-5.1,5.1C12.6,33,14.9,35.3,17.7,35.3z M31.7,35.3
		c2.8,0,5.1-2.3,5.1-5.1c0-2.8-2.3-5.1-5.1-5.1c-2.8,0-5.1,2.3-5.1,5.1C26.6,33,28.9,35.3,31.7,35.3z M37.5,24.8c0-0.1,0-0.1,0-0.2
		c0-0.8,0-1.5,0-2.3c0-0.1,0-0.2-0.2-0.2c-3.3-0.6-6.5-1.3-9.8-1.9c-2.1-0.4-4.2-0.8-6.3-1.2c-1-0.2-1.8,0.7-1.5,1.6
		c0.1,0.6,0.5,0.9,1.1,1c5.5,1.1,11,2.2,16.5,3.2C37.3,24.8,37.4,24.8,37.5,24.8z M27.4,5.4C27.4,5.4,27.4,5.3,27.4,5.4
		C27.2,5,27.1,4.8,27,4.5c0-0.1-0.1-0.1-0.1-0.1c-0.2-0.2-0.4-0.2-0.6-0.2c-2.8,0-5.7,0-8.5,0c0,0-0.1,0-0.1,0
		c-0.4,0-0.6,0.3-0.6,0.7c0,0.1,0,0.2,0,0.4c0,2.8,0,5.6,0,8.4c0,0.2,0,0.2,0.2,0.2c0.3,0,0.7,0,1,0c0,0,0.1,0,0.1,0
		c0-0.1,0-0.1,0-0.2c0-2.5,0-4.9,0-7.4c0-0.1,0-0.3,0.1-0.4c0.1-0.3,0.4-0.3,0.6-0.3c2.7,0,5.4,0,8.1,0C27.2,5.4,27.3,5.4,27.4,5.4z
		 M27.9,35.3c-0.1,0-0.1-0.1-0.1-0.1c-1.4-1.1-2.2-2.5-2.4-4.2c0-0.1,0-0.1-0.1-0.1c-0.3,0-0.6,0-0.9,0c-0.3,0-0.3,0-0.3,0.3
		c0,0,0,0,0,0c-0.3,1.7-1.1,3-2.4,4.1c0,0-0.1,0.1-0.1,0.1C23.7,35.3,25.8,35.3,27.9,35.3z M13.3,11.7c0-0.6,0-1.2,0-1.8
		c0-0.2-0.1-0.4-0.2-0.5c-0.4-0.4-0.8-0.8-1.3-1.3C11.7,8,11.6,8,11.5,8c-0.3,0-0.5,0.1-0.7,0.4c-0.1,0.2-0.1,0.5,0.1,0.7
		c0.3,0.3,0.6,0.6,0.9,0.9c0.2,0.2,0.2,0.3,0.2,0.6c0,1,0,2.1,0,3.1c0,0.1,0,0.2,0.2,0.2c0.3,0,0.6,0,1,0c0.2,0,0.2,0,0.2-0.2
		C13.3,12.9,13.3,12.3,13.3,11.7z M26.7,26.4c-1.3,0-2.6,0-3.8,0c0,0,0,0,0,0.1c0.7,0.9,1.1,1.9,1.2,3c0,0.1,0.1,0.1,0.1,0.1
		c0.4,0,0.7,0,1.1,0c0.1,0,0.1,0,0.1-0.1c0.1-1.1,0.5-2,1.1-2.9C26.6,26.5,26.6,26.5,26.7,26.4z M12.6,26.4
		C12.6,26.4,12.6,26.4,12.6,26.4c-0.9,0-1.7,0-2.4,0c-0.1,0-0.1,0-0.1,0.1c0,0.6,0,1.2,0,1.8c0,0.7,0.5,1.2,1.2,1.3
		c0.1,0,0.1,0,0.2-0.1C11.6,28.4,11.9,27.4,12.6,26.4C12.6,26.5,12.6,26.4,12.6,26.4z M37.5,33C37.5,33,37.4,33,37.5,33
		c-0.5,0.9-1.1,1.6-1.9,2.3c0,0,0.1,0,0.1,0c0.5,0,1.1,0,1.6,0c0.1,0,0.1,0,0.1-0.2c0-0.7,0-1.3,0-2C37.5,33.1,37.5,33.1,37.5,33z
		 M36.4,25.9C36.4,25.9,36.4,25.9,36.4,25.9c0.4,0.5,0.7,1,1,1.5c0-0.4,0-0.8,0-1.2c0,0-0.1-0.1-0.1-0.1c-0.2,0-0.4-0.1-0.7-0.1
		C36.6,25.9,36.5,25.9,36.4,25.9z"/>
	<path class="st0" d="M9.8,36.6c-0.1,0-0.3,0-0.4,0c-0.3,0-0.6-0.3-0.6-0.6c0-0.3,0.2-0.6,0.6-0.6c0.3,0,0.5,0,0.8,0
		c0.3,0,0.6,0.3,0.6,0.6c0,0.3-0.2,0.6-0.6,0.6C10,36.6,9.9,36.6,9.8,36.6C9.8,36.6,9.8,36.6,9.8,36.6z"/>
	<path class="st0" d="M17.7,27c1.8,0,3.2,1.4,3.2,3.2c0,1.8-1.4,3.2-3.2,3.2c-1.8,0-3.2-1.4-3.2-3.2C14.6,28.5,16,27,17.7,27z
		 M17.7,32.1c1,0,1.9-0.8,1.9-1.9c0-1.1-0.8-1.9-1.9-1.9c-1,0-1.9,0.8-1.9,1.9C15.8,31.2,16.6,32.1,17.7,32.1z"/>
	<path class="st0" d="M28.6,30.2c0-1.8,1.4-3.2,3.2-3.2c1.8,0,3.2,1.4,3.2,3.2c0,1.7-1.4,3.2-3.2,3.2C30,33.4,28.6,32,28.6,30.2z
		 M33.6,30.2c0-1.1-0.8-1.9-1.9-1.9c-1.1,0-1.9,0.9-1.9,1.9c0,1.1,0.9,1.9,1.9,1.9C32.8,32.1,33.6,31.3,33.6,30.2z"/>
</g>
<g>
	<g>
		<path class="st0" d="M27.8,43.9c0.6,0,1.2,0,1.9,0c0,0,0,0.1,0,0.1c0,1.2,0,2.4,0,3.6c0,0.1,0,0.1,0.1,0.1c1.1,0,2.1,0,3.2,0
			c0.1,0,0.1,0,0.1-0.1c0-1.2,0-2.4,0-3.6c0-0.1,0-0.1,0.1-0.1c0.5,0,0.9,0,1.4,0c0.1,0,0.2,0,0.3,0c0,3.3,0,6.5,0,9.7c0,0,0,0,0,0
			c-0.6,0-1.1,0-1.7,0c-0.1,0-0.1,0-0.1-0.1c0-1.3,0-2.6,0-3.9c0-0.1,0-0.1-0.1-0.1c-1.1,0-2.1,0-3.2,0c-0.1,0-0.1,0-0.1,0.1
			c0,1.3,0,2.6,0,3.9c0,0.1,0,0.1-0.1,0.1c-0.6,0-1.1,0-1.7,0c-0.1,0-0.1,0-0.1-0.1c0-3.2,0-6.3,0-9.5C27.8,44,27.8,44,27.8,43.9z"
			/>
		<path class="st0" d="M46.2,42.8c0,0,0.1,0,0.1,0c0.5,0,1,0,1.6,0c0.1,0,0.1,0,0.1,0.1c0,1.1,0,2.2,0,3.3c0,0,0,0.1,0,0.1
			c0,0,0.1,0,0.1,0c0.9-0.4,1.7-0.5,2.7-0.2c1,0.3,1.7,1,2.1,1.9c0.5,1.1,0.5,2.3,0.1,3.4c-0.1,0.4-0.3,0.7-0.6,1
			c-0.6,0.8-1.5,1.3-2.5,1.4c-0.6,0.1-1.3,0-1.9-0.2c-1.1-0.5-1.7-1.3-1.8-2.5c0-0.1,0-0.2,0-0.4c0-2.6,0-5.1,0-7.7
			C46.2,42.9,46.2,42.9,46.2,42.8z M48,49.6c0,0.4,0,0.8,0,1.3c0,0.5,0.2,0.9,0.6,1.1c0.4,0.2,0.8,0.2,1.2,0.2
			c0.5-0.1,0.8-0.3,1.1-0.7c0.6-0.8,0.7-1.7,0.4-2.7c-0.1-0.3-0.3-0.6-0.6-0.8c-0.4-0.2-0.8-0.3-1.2-0.3c-0.5,0-1,0.3-1.4,0.6
			c0,0,0,0.1,0,0.1C48,48.7,48,49.1,48,49.6z"/>
		<path class="st0" d="M19.2,53.6c-0.1,0-0.1,0-0.1,0c-0.5,0-1,0-1.5,0c-0.2,0-0.3,0-0.5,0.1c-0.1,0-0.1,0-0.2-0.1
			c-0.7-1-1.4-2.1-2.1-3.1c0,0,0-0.1-0.1-0.1c0,0,0,0.1-0.1,0.1c-0.4,0.4-0.8,0.9-1.2,1.3c0,0-0.1,0.1-0.1,0.2c0,0.5,0,1.1,0,1.6
			c0,0,0,0,0,0c0,0-0.1,0-0.1,0c-0.5,0-1.1,0-1.6,0c-0.1,0-0.1,0-0.1-0.1c0-3.4,0-6.8,0-10.2c0-0.1,0-0.1,0.1-0.1c0.5,0,1,0,1.6,0
			c0.1,0,0.1,0,0.1,0.1c0,2,0,4.1,0,6.1c0,0,0,0.1,0,0.1c0,0,0,0,0,0c0,0,0.1,0,0.1-0.1c1.1-1.1,2.1-2.3,3.2-3.4
			c0.1-0.1,0.1-0.1,0.2-0.1c0.6,0,1.3,0,1.9,0c0,0,0.1,0,0.1,0c0,0-0.1,0.1-0.1,0.1c-0.9,1-1.8,1.9-2.7,2.9c-0.1,0.1-0.1,0.1,0,0.2
			c0.5,0.7,1,1.4,1.5,2.1c0.3,0.4,0.5,0.8,0.8,1.2C18.5,52.8,18.8,53.2,19.2,53.6C19.1,53.6,19.1,53.6,19.2,53.6z"/>
		<path class="st0" d="M43.8,46c0,1.3,0,2.5,0,3.8c0,1.3,0,2.5,0,3.8c0,0-0.1,0-0.1,0c-0.5,0-1.1,0-1.6,0c-0.1,0-0.1,0-0.1-0.1
			c0-0.2,0-0.4,0-0.5c0,0-0.1,0-0.1,0.1c-0.5,0.4-1.2,0.7-1.9,0.7c-1.2,0-2.1-0.6-2.4-1.7c-0.1-0.4-0.2-0.8-0.2-1.2
			c0-1.2,0-2.5,0-3.7c0-0.4,0-0.8-0.1-1.1c0.6,0,1.3,0,1.9,0c0,0,0,0.1,0,0.1c0,1.4,0,2.7,0,4.1c0,0.2,0,0.5,0.1,0.7
			c0,0.2,0.1,0.3,0.1,0.5c0.1,0.3,0.4,0.5,0.7,0.6c0.5,0.1,0.9,0.1,1.3-0.2c0.2-0.1,0.3-0.2,0.4-0.3c0.1,0,0.1-0.1,0.1-0.2
			c0-1.7,0-3.4,0-5.1c0-0.1,0-0.1,0.1-0.1c0.5,0,1,0,1.5,0C43.8,46,43.8,46,43.8,46z"/>
		<path class="st0" d="M9.1,53.6C9.1,53.6,9,53.6,9.1,53.6c-0.6,0-1.2,0-1.7,0c-0.1,0-0.1,0-0.1-0.1c0-0.2,0-0.4,0-0.6
			c0,0-0.1,0.1-0.1,0.1c-0.5,0.4-1,0.6-1.6,0.7c-0.5,0.1-1,0-1.5-0.2c-0.6-0.3-1-0.8-1.2-1.5c-0.1-0.4-0.2-0.8-0.2-1.2
			c0-1.2,0-2.4,0-3.6c0-0.2,0-0.5,0-0.7c0-0.2-0.1-0.3-0.1-0.5c0,0,0,0,0-0.1c0.6,0,1.3,0,1.9,0c0,0,0,0.1,0,0.1c0,1.4,0,2.7,0,4.1
			c0,0.2,0,0.5,0.1,0.7c0,0.2,0.1,0.4,0.2,0.5c0.1,0.3,0.4,0.5,0.7,0.6c0.5,0.1,0.9,0.1,1.4-0.2c0.2-0.1,0.3-0.2,0.4-0.3
			c0.1,0,0.1-0.1,0.1-0.2c0-1.7,0-3.4,0-5.1c0,0,0-0.1,0-0.1c0,0,0.1,0,0.1,0c0.5,0,1,0,1.6,0c0.1,0,0.1,0,0.1,0.1
			c0,2.2,0,4.3,0,6.5C9.1,53,9.1,53.3,9.1,53.6z"/>
		<path class="st0" d="M19.7,51.2C19.8,51.2,19.8,51.2,19.7,51.2c0.2,0.3,0.5,0.4,0.7,0.5c0.6,0.3,1.3,0.4,2,0.5c0.3,0,0.6,0,0.9,0
			c0.1,0,0.2-0.1,0.3-0.1c0.3-0.1,0.4-0.4,0.4-0.7c0-0.2-0.1-0.3-0.3-0.4c-0.3-0.1-0.6-0.2-0.9-0.3c-0.4-0.1-0.9-0.2-1.3-0.3
			c-0.2-0.1-0.5-0.2-0.7-0.3c-0.8-0.4-1.2-1.1-1.2-2c0-0.8,0.4-1.4,1.1-1.8c0.4-0.3,0.9-0.4,1.4-0.5c0.7-0.1,1.3-0.1,2,0.1
			c0.5,0.1,0.9,0.4,1.3,0.7c0,0,0.1,0.1,0,0.1c-0.2,0.5-0.3,1-0.5,1.5c0,0,0,0,0,0c0,0,0,0,0-0.1c-0.2-0.2-0.4-0.4-0.7-0.5
			c-0.7-0.3-1.4-0.4-2.1-0.3c-0.2,0-0.3,0.1-0.5,0.2c-0.2,0.2-0.3,0.4-0.3,0.6c0,0.2,0.1,0.3,0.2,0.3c0.3,0.1,0.5,0.2,0.8,0.3
			c0.3,0.1,0.7,0.1,1.1,0.2c0.4,0.1,0.8,0.2,1.2,0.4c0.6,0.3,0.9,0.8,1,1.5c0.1,0.7,0,1.3-0.5,1.8c-0.3,0.3-0.6,0.5-1,0.7
			c-0.4,0.2-0.8,0.2-1.2,0.3c-0.7,0-1.4,0-2.1-0.1c-0.5-0.1-0.9-0.3-1.3-0.5c-0.1,0-0.1-0.1-0.1-0.2C19.6,52.4,19.7,51.8,19.7,51.2
			C19.7,51.3,19.7,51.2,19.7,51.2z"/>
	</g>
	<g>
		<path class="st0" d="M53.3,42.6h-0.4v-0.2H54v0.2h-0.4v1.3h-0.3V42.6z"/>
		<path class="st0" d="M55.4,43.3c0-0.2,0-0.4,0-0.6h0c0,0.2-0.1,0.4-0.2,0.6L55,43.9h-0.2l-0.2-0.6c-0.1-0.2-0.1-0.4-0.2-0.6h0
			c0,0.2,0,0.4,0,0.6l0,0.6h-0.3l0.1-1.5h0.4l0.2,0.6c0.1,0.2,0.1,0.4,0.1,0.5h0c0-0.2,0.1-0.3,0.1-0.5l0.2-0.6h0.4l0.1,1.5h-0.3
			L55.4,43.3z"/>
	</g>
</g>
</svg>
