<svg width="20" height="20" viewBox="0 0 20 20" fill="none" xmlns="http://www.w3.org/2000/svg">
<path d="M10 3.50001C9.81246 3.31247 10.2652 3.50001 10 3.50001C10.1875 3.68755 11.0677 2.73464 11.0677 2.99985V8.26785L15.6297 5.63385C15.7435 5.56716 15.3693 6.51772 15.5 6.49985C15.3725 6.46615 15.6307 6.48199 15.5 6.49985C15.3952 6.41975 15.6275 6.53356 15.5 6.49985C15.6048 6.57996 16.5638 7.25164 16.6297 7.36585C16.6127 7.23507 16.6957 7.48006 16.6297 7.36585C16.6467 7.49663 16.6643 7.1992 16.6297 7.32647C16.5952 7.45374 16.7105 7.26163 16.6297 7.36585C16.7444 7.30067 16.5489 7.47008 16.6297 7.36585L12.0677 9.99985L16.6297 12.6339C16.5489 12.5296 16.7444 12.699 16.6297 12.6339C16.5952 12.5066 16.7105 12.7381 16.6297 12.6339C16.6467 12.5031 16.6643 12.7611 16.6297 12.6339C16.6127 12.7646 16.0659 12.8856 16 12.9999C16.1048 12.9197 15.9341 13.1141 16 12.9999C15.8952 13.08 15.7572 14.3321 15.6297 14.3659C15.7604 14.3837 15.5022 14.3996 15.6297 14.3659C15.7435 14.4326 15.4991 14.348 15.6297 14.3659L11.0677 11.7319V16.9999C11.0677 17.2651 11.1875 16.8123 11 16.9999C10.8125 17.1874 10.2652 16.4999 10 16.4999C9.73478 16.4999 9.18754 17.1874 9 16.9999C8.81246 16.8123 9.06772 17.2651 9.06772 16.9999V11.7319L4.50572 14.3659C4.63638 14.348 4.39195 14.4326 4.50572 14.3659C4.63322 14.3996 4.37506 14.3837 4.50572 14.3659C4.61048 14.446 4.37822 14.3321 4.50572 14.3659C4.57166 14.4801 4.40096 14.2857 4.50572 14.3659C4.43978 14.2516 3.52273 12.7646 3.50573 12.6339C3.47118 12.7611 3.48873 12.5031 3.50573 12.6339C3.42493 12.7381 3.54029 12.5066 3.50573 12.6339C3.39109 12.699 3.58653 12.5296 3.50573 12.6339L8.06772 9.99985L3.50572 7.36585L4.50572 5.63385L9.06772 8.26785V2.99985C9.06772 2.73464 9.81246 3.68755 10 3.50001C9.73478 3.50001 10.1875 3.31247 10 3.50001Z" fill="black"/>
<path d="M10 3.50001C9.81246 3.31247 10.2652 3.50001 10 3.50001C10.1875 3.68755 11.0677 2.73464 11.0677 2.99985V8.26785L15.6297 5.63385C15.7435 5.56716 15.3693 6.51772 15.5 6.49985C15.3725 6.46615 15.6307 6.48199 15.5 6.49985C15.3952 6.41975 15.6275 6.53356 15.5 6.49985C15.6048 6.57996 16.5638 7.25164 16.6297 7.36585C16.6127 7.23507 16.6957 7.48006 16.6297 7.36585C16.6467 7.49663 16.6643 7.1992 16.6297 7.32647C16.5952 7.45374 16.7105 7.26163 16.6297 7.36585C16.7444 7.30067 16.5489 7.47008 16.6297 7.36585L12.0677 9.99985L16.6297 12.6339C16.5489 12.5296 16.7444 12.699 16.6297 12.6339C16.5952 12.5066 16.7105 12.7381 16.6297 12.6339C16.6467 12.5031 16.6643 12.7611 16.6297 12.6339C16.6127 12.7646 16.0659 12.8856 16 12.9999C16.1048 12.9197 15.9341 13.1141 16 12.9999C15.8952 13.08 15.7572 14.3321 15.6297 14.3659C15.7604 14.3837 15.5022 14.3996 15.6297 14.3659C15.7435 14.4326 15.4991 14.348 15.6297 14.3659L11.0677 11.7319V16.9999C11.0677 17.2651 11.1875 16.8123 11 16.9999C10.8125 17.1874 10.2652 16.4999 10 16.4999C9.73478 16.4999 9.18754 17.1874 9 16.9999C8.81246 16.8123 9.06772 17.2651 9.06772 16.9999V11.7319L4.50572 14.3659C4.63638 14.348 4.39195 14.4326 4.50572 14.3659C4.63322 14.3996 4.37506 14.3837 4.50572 14.3659C4.61048 14.446 4.37822 14.3321 4.50572 14.3659C4.57166 14.4801 4.40096 14.2857 4.50572 14.3659C4.43978 14.2516 3.52273 12.7646 3.50573 12.6339C3.47118 12.7611 3.48873 12.5031 3.50573 12.6339C3.42493 12.7381 3.54029 12.5066 3.50573 12.6339C3.39109 12.699 3.58653 12.5296 3.50573 12.6339L8.06772 9.99985L3.50572 7.36585L4.50572 5.63385L9.06772 8.26785V2.99985C9.06772 2.73464 9.81246 3.68755 10 3.50001C9.73478 3.50001 10.1875 3.31247 10 3.50001Z" fill="black"/>
<path d="M11.5 2C11.5 2.82843 10.8284 3.5 10 3.5C9.17157 3.5 8.5 2.82843 8.5 2C8.5 1.17157 9.17157 0.5 10 0.5C10.8284 0.5 11.5 1.17157 11.5 2Z" stroke="black"/>
<circle cx="3" cy="6" r="1.5" stroke="black"/>
<circle cx="3" cy="14" r="1.5" stroke="black"/>
<circle cx="10" cy="18" r="1.5" stroke="black"/>
<circle cx="17" cy="14" r="1.5" stroke="black"/>
<circle cx="17" cy="6" r="1.5" stroke="black"/>
</svg>
