<?xml version="1.0" encoding="utf-8"?>
<!-- Generator: Adobe Illustrator 21.0.2, SVG Export Plug-In . SVG Version: 6.00 Build 0)  -->
<svg version="1.1" id="Layer_1" xmlns="http://www.w3.org/2000/svg" xmlns:xlink="http://www.w3.org/1999/xlink" x="0px" y="0px"
	 viewBox="0 0 258 56.7" style="enable-background:new 0 0 258 56.7;" xml:space="preserve">
<style type="text/css">
	.st0{fill:#2D2D2D;}
</style>
<g>
	<path class="st0" d="M10.9,52.2c-0.1,0-0.1-0.1-0.2-0.1c-2-1.6-3.2-3.7-3.6-6.2c0-0.2,0-0.4-0.1-0.5c-0.1-0.1-0.3,0-0.4-0.1
		c-2-0.2-3.5-1.9-3.5-3.8c0-6.2,0-12.4,0-18.6c0-1.7,1.1-3.2,2.7-3.7C6,19.2,6,19.2,6,19c0-1.5,0-3,0-4.4c0-0.1-0.1-0.2-0.1-0.3
		c-0.3-0.3-0.7-0.7-1-1c-0.8-0.8-1-1.8-0.7-2.9c0.3-1.1,1.1-1.7,2.2-2c1-0.2,2,0,2.7,0.8c0.6,0.6,1.3,1.3,1.9,1.9
		c0.6,0.6,0.9,1.3,0.9,2.2c0,1.8,0,3.7,0,5.5c0,0.2,0,0.2,0.2,0.2c0.5,0,1,0,1.5,0c0.2,0,0.2-0.1,0.2-0.2c0-4.5,0-8.9,0-13.4
		c0-1.3,0.6-2.2,1.8-2.7c0.4-0.2,0.8-0.2,1.2-0.2c4.4,0,8.8,0,13.2,0c1.3,0,2.3,0.7,2.8,1.9c2,4.8,4,9.7,6,14.5
		c0.1,0.2,0.2,0.3,0.4,0.2c0.7,0,1.4,0,2.2,0c2.1,0.1,3.8,1.8,3.8,3.9c0,2.2,0,4.4,0,6.6c0,0.2,0,0.2,0.2,0.3c0.5,0.1,1,0.2,1.5,0.3
		c0.1,0,0.1,0,0.2,0c0-0.1,0-0.2,0-0.2c0-0.6,0-1.2,0-1.9c0-1.3,1.1-2.2,2.3-1.9c1,0.2,2.1,0.4,3.1,0.6c0.8,0.2,1.3,0.6,1.5,1.4
		c2.4,7.8,4.8,15.6,7.2,23.4c0.2,0.6,0.2,1.2-0.2,1.7c-0.3,0.6-0.8,0.9-1.5,0.9c-0.1,0-0.2,0-0.3,0c-16.7,0-33.4,0-50.1,0
		c-0.4,0-0.7-0.1-1-0.4c-0.4-0.6-0.1-1.5,0.7-1.5c0.6,0,1.2,0,1.8,0C10.7,52.3,10.8,52.3,10.9,52.2C10.9,52.3,10.9,52.3,10.9,52.2z
		 M43.2,29.4c0-0.1,0-0.1,0-0.2c0-1.1,0-2.1,0-3.2c0-0.2-0.1-0.2-0.2-0.2c-0.7,0-1.3,0-2,0c-0.3,0-0.6,0-0.9,0
		c-0.7-0.1-1.1-0.9-0.7-1.5c0.2-0.3,0.5-0.5,0.9-0.5c0.9,0,1.8,0,2.7,0c0.2,0,0.2,0,0.2-0.2c0-0.3,0-0.5,0-0.8
		c0-0.8-0.4-1.4-1.1-1.7C41.7,21.1,41.4,21,41,21c-11.2,0-22.5,0-33.7,0c-0.1,0-0.1,0-0.2,0c-1.2,0-2,0.9-2,2c0,0.2,0,0.5,0,0.7
		c0,0.2,0,0.2,0.2,0.2c0.8,0,1.6,0,2.5,0c0.1,0,0.3,0,0.4,0c0.7,0.1,1,0.8,0.7,1.4c-0.2,0.4-0.5,0.5-0.9,0.5c-0.9,0-1.7,0-2.6,0
		c-0.2,0-0.2,0-0.2,0.2c0,3.4,0,6.9,0,10.3c0,0.2,0,0.2,0.2,0.2c1.7,0,3.4,0,5.1,0c0.3,0,0.6,0,0.8-0.2c0,0,0.1-0.1,0.2-0.1
		c3.4-2.2,7.8-2.1,11.1,0.3c0.1,0.1,0.2,0.1,0.3,0.1c3.2,0,6.4,0,9.5,0c0.1,0,0.2,0,0.2-0.1c0.5-0.3,0.9-0.6,1.4-0.8
		c0.1,0,0.1-0.1,0.2-0.1c-0.2-0.1-0.4-0.1-0.6-0.2c-4.2-0.8-8.3-1.6-12.5-2.5c-1.7-0.3-2.9-1.6-3.1-3.2c-0.3-1.6,0.5-3.2,1.9-4
		c0.9-0.5,1.8-0.6,2.8-0.4c6.8,1.3,13.5,2.7,20.3,4C43,29.4,43,29.4,43.2,29.4z M49,28.1c0,0.1,0,0.2,0,0.2c0,7.9,0,15.8,0,23.8
		c0,0.2,0,0.2,0.2,0.2c3.3,0,6.6,0,10,0c0.1,0,0.1,0,0.2,0c0-0.1,0-0.2-0.1-0.3c-0.5-1.5-0.9-3-1.4-4.5c-1.9-6.2-3.8-12.4-5.7-18.6
		c-0.1-0.2-0.1-0.2-0.3-0.3c-0.9-0.2-1.8-0.4-2.7-0.5C49.2,28.1,49.1,28.1,49,28.1z M36.8,19.1c0-0.1-0.1-0.2-0.1-0.3
		c-1-2.5-2.1-5-3.1-7.5c-0.4-0.9-0.8-1.9-1.1-2.8c0-0.1-0.1-0.2-0.2-0.2c-4.1,0-8.2,0-12.3,0c-0.2,0-0.2,0-0.2,0.2
		c0,3.4,0,6.9,0,10.3c0,0.2,0.1,0.2,0.2,0.2c2.5,0,4.9,0,7.4,0c0.2,0,0.2-0.1,0.2-0.2c0-0.9,0-1.8,0-2.7c0-0.3,0.1-0.5,0.3-0.7
		c0.3-0.3,0.7-0.4,1.1-0.2c0.4,0.2,0.6,0.5,0.6,0.9c0,0.9,0,1.8,0,2.8c0,0.2,0,0.2,0.2,0.2c0.5,0,1,0,1.6,0c0.2,0,0.2-0.1,0.2-0.2
		c0-0.9,0-1.8,0-2.7c0-0.1,0-0.3,0.1-0.4c0.2-0.4,0.6-0.7,1.1-0.6c0.5,0.1,0.8,0.5,0.8,1c0,0.9,0,1.8,0,2.7c0,0.2,0,0.2,0.2,0.2
		c1,0,2,0,3,0C36.7,19.1,36.7,19.1,36.8,19.1z M16.8,52.3c4.3,0,7.8-3.5,7.8-7.9c0-4.3-3.5-7.8-7.8-7.8c-4.3,0-7.8,3.5-7.8,7.8
		C9,48.8,12.5,52.3,16.8,52.3z M38.3,52.3c4.3,0,7.8-3.5,7.8-7.8c0-4.3-3.5-7.8-7.8-7.8c-4.3,0-7.8,3.5-7.8,7.8
		C30.4,48.8,34,52.3,38.3,52.3z M47.1,36.2c0-0.1,0-0.2,0-0.3c0-1.2,0-2.3,0-3.5c0-0.2-0.1-0.3-0.3-0.3c-5-1-10.1-2-15.1-3
		c-3.2-0.6-6.4-1.2-9.6-1.9c-1.6-0.3-2.7,1-2.4,2.4c0.2,0.9,0.8,1.3,1.7,1.5c8.5,1.7,16.9,3.3,25.4,5C46.9,36.1,47,36.2,47.1,36.2z
		 M31.6,6.4c0-0.1,0-0.1,0-0.1C31.4,5.8,31.2,5.4,31,5c0-0.1-0.1-0.2-0.2-0.2c-0.2-0.3-0.5-0.3-0.9-0.3c-4.3,0-8.7,0-13,0
		c-0.1,0-0.1,0-0.2,0c-0.6,0-1,0.4-1,1c0,0.2,0,0.4,0,0.6c0,4.3,0,8.6,0,12.9c0,0.2,0,0.2,0.2,0.2c0.5,0,1,0,1.5,0
		c0.1,0,0.1,0,0.2,0c0-0.1,0-0.2,0-0.3c0-3.8,0-7.6,0-11.4c0-0.2,0-0.4,0.1-0.5c0.2-0.4,0.5-0.5,1-0.5c4.1,0,8.3,0,12.4,0
		C31.4,6.4,31.5,6.4,31.6,6.4z M32.4,52.3c-0.1-0.1-0.1-0.1-0.2-0.2c-2.1-1.7-3.3-3.9-3.7-6.5c0-0.1-0.1-0.2-0.2-0.2
		c-0.5,0-0.9,0-1.4,0c-0.5,0-0.5,0-0.5,0.4c0,0,0,0,0,0c-0.4,2.5-1.6,4.6-3.6,6.2c0,0-0.1,0.1-0.2,0.2
		C25.9,52.3,29.1,52.3,32.4,52.3z M10,16c0-0.9,0-1.8,0-2.8c0-0.3-0.1-0.6-0.3-0.8c-0.6-0.6-1.3-1.3-1.9-1.9
		c-0.1-0.1-0.4-0.2-0.6-0.3c-0.4-0.1-0.8,0.2-1,0.6C5.9,11.2,6,11.6,6.3,12c0.4,0.4,0.9,0.9,1.3,1.3C7.9,13.5,8,13.8,8,14.1
		c0,1.6,0,3.1,0,4.7c0,0.2,0.1,0.2,0.2,0.2c0.5,0,1,0,1.5,0c0.2,0,0.2,0,0.2-0.2C10,17.9,10,17,10,16z M30.5,38.6c-2,0-3.9,0-5.9,0
		c0,0,0,0.1,0,0.1c1,1.4,1.6,2.9,1.8,4.7c0,0.1,0.1,0.1,0.2,0.1c0.6,0,1.1,0,1.7,0c0.1,0,0.2,0,0.2-0.2c0.2-1.6,0.8-3.1,1.7-4.5
		C30.4,38.8,30.4,38.7,30.5,38.6z M9,38.6c-0.1,0-0.1,0-0.1,0c-1.2,0-2.4,0-3.6,0c-0.1,0-0.2,0.1-0.2,0.2c0,0.9,0,1.8,0,2.8
		c0,1,0.8,1.9,1.8,2c0.2,0,0.2,0,0.2-0.2c0.2-1.7,0.8-3.2,1.8-4.5C8.9,38.7,8.9,38.7,9,38.6z M47.1,48.8C47,48.8,47,48.8,47.1,48.8
		c-0.7,1.4-1.7,2.5-2.9,3.5c0.1,0,0.1,0,0.2,0c0.8,0,1.7,0,2.5,0c0.2,0,0.2-0.1,0.2-0.2c0-1,0-2.1,0-3.1
		C47.1,48.9,47.1,48.9,47.1,48.8z M45.5,37.8C45.5,37.9,45.4,37.9,45.5,37.8c0.6,0.7,1.1,1.5,1.6,2.3c0-0.6,0-1.3,0-1.9
		c0,0-0.1-0.1-0.1-0.1c-0.3-0.1-0.7-0.1-1-0.2C45.8,37.9,45.6,37.9,45.5,37.8z"/>
	<path class="st0" d="M4.6,54.2c-0.2,0-0.4,0-0.6,0c-0.5,0-0.9-0.4-0.9-1c0-0.5,0.4-0.9,0.9-1c0.4,0,0.8,0,1.2,0
		c0.5,0,0.9,0.5,0.9,0.9c0,0.5-0.4,0.9-0.9,1C5,54.2,4.8,54.2,4.6,54.2L4.6,54.2z"/>
	<path class="st0" d="M16.8,39.6c2.7,0,4.9,2.2,4.9,4.9c0,2.7-2.2,4.9-4.9,4.9c-2.7,0-4.9-2.2-4.9-4.9
		C11.9,41.8,14.1,39.6,16.8,39.6z M16.8,47.4c1.6,0,2.9-1.3,3-2.9c0-1.6-1.3-3-2.9-3c-1.6,0-2.9,1.3-3,2.9
		C13.8,46.1,15.1,47.4,16.8,47.4z"/>
	<path class="st0" d="M33.4,44.5c0-2.7,2.2-4.9,4.9-4.9c2.7,0,4.9,2.2,4.9,4.9c0,2.7-2.2,4.9-4.9,4.9C35.6,49.4,33.4,47.2,33.4,44.5
		z M41.2,44.5c0-1.6-1.3-2.9-2.9-2.9c-1.6,0-3,1.3-3,2.9c0,1.6,1.3,2.9,2.9,2.9C39.9,47.4,41.2,46.1,41.2,44.5z"/>
</g>
<g>
	<path class="st0" d="M162.1,13.1c2.2,0.1,4.4,0.2,6.6-0.1c0,0.2,0,0.3,0,0.4c0,4.3,0,8.5,0,12.8c0,0.4,0,0.4,0.4,0.4
		c3.7,0,7.5,0,11.2,0c0.4,0,0.4,0,0.4-0.4c0-4.2,0-8.5,0-12.7c0-0.4,0-0.4,0.4-0.4c1.7,0,3.3,0.1,5,0.1c0.4,0,0.8-0.1,1.2-0.1
		c0,11.4,0,22.9,0,34.3c-0.1,0-0.1,0-0.1,0c-2,0-4-0.1-6.1-0.1c-0.4,0-0.4,0-0.4-0.4c0-4.5,0-9.1,0-13.6c0-0.4,0-0.4-0.4-0.4
		c-3.7,0-7.5,0-11.2,0c-0.5,0-0.5,0-0.5,0.5c0,4.6,0,9.2,0,13.8c0,0.4,0,0.4-0.4,0.4c-1.9,0-3.9-0.1-5.8-0.1c-0.3,0-0.4-0.1-0.4-0.4
		c0-11.2,0-22.3,0-33.5C162,13.3,162.1,13.2,162.1,13.1z"/>
	<path class="st0" d="M226.8,9.1c0.2,0,0.3,0,0.4,0c1.8,0,3.7,0,5.5,0c0.3,0,0.4,0.1,0.4,0.4c0,3.8,0,7.7,0,11.5c0,0.1,0,0.3,0,0.5
		c0.2-0.1,0.3-0.1,0.4-0.2c3-1.5,6.2-1.7,9.3-0.8c3.6,1,6,3.4,7.4,6.7c1.7,3.9,1.6,7.9,0.3,11.9c-0.4,1.3-1.1,2.5-2,3.6
		c-2.2,2.9-5.2,4.5-8.8,4.9c-2.3,0.2-4.5,0-6.6-0.8c-3.9-1.6-6.1-4.5-6.3-8.8c0-0.4,0-0.8,0-1.2c0-9.1,0-18.1,0-27.2
		C226.8,9.4,226.8,9.3,226.8,9.1z M233.1,32.8c0,1.5,0,2.9,0,4.4c0,1.7,0.7,3,2.2,3.7c1.3,0.6,2.7,0.7,4.1,0.6
		c1.7-0.2,3-1.1,3.9-2.4c2.1-2.9,2.3-6.1,1.3-9.4c-0.4-1.2-1.2-2.2-2.3-2.9c-1.3-0.8-2.7-1.1-4.1-1c-1.9,0.1-3.5,0.9-5,2
		c-0.1,0.1-0.1,0.3-0.1,0.4C233.1,29.8,233.1,31.3,233.1,32.8z"/>
	<path class="st0" d="M131.6,47.2c-0.2,0-0.3,0-0.5,0c-1.8,0-3.6,0-5.4,0.1c-0.5,0-1.1,0.1-1.6,0.2c-0.3,0.1-0.4,0-0.6-0.2
		c-2.5-3.7-5-7.4-7.6-11.1c-0.1-0.1-0.1-0.2-0.3-0.4c-0.1,0.2-0.1,0.3-0.2,0.3c-1.5,1.6-2.9,3.1-4.4,4.7c-0.2,0.2-0.2,0.3-0.2,0.6
		c0.1,1.9,0.1,3.7,0.2,5.6c0,0,0,0.1,0,0.2c-0.1,0-0.2,0-0.4,0c-1.9,0-3.8,0-5.7,0c-0.3,0-0.4-0.1-0.4-0.4c0-12,0-23.9,0-35.9
		c0-0.3,0.1-0.4,0.4-0.4c1.8,0,3.7,0,5.5,0c0.3,0,0.4,0.1,0.4,0.4c0,7.2,0,14.4,0,21.5c0,0.1,0,0.3,0,0.4c0,0,0,0,0.1,0
		c0.1-0.1,0.2-0.2,0.3-0.3c3.7-4,7.4-8,11.1-12c0.2-0.2,0.4-0.3,0.6-0.3c2.3,0,4.5,0,6.8,0c0.1,0,0.2,0,0.4,0
		c-0.1,0.1-0.2,0.2-0.3,0.3c-3.2,3.4-6.4,6.7-9.6,10c-0.2,0.2-0.2,0.4,0,0.6c1.8,2.4,3.6,4.9,5.4,7.3c1,1.4,1.8,2.9,2.8,4.2
		c1,1.4,2,2.7,3,4.1C131.5,47.1,131.5,47.1,131.6,47.2z"/>
	<path class="st0" d="M218.5,20.5c0,4.5,0,8.9,0,13.4c0,4.4-0.1,8.9,0.1,13.4c-0.1,0-0.2,0-0.3,0c-1.9,0-3.9,0-5.8,0
		c-0.3,0-0.4-0.1-0.4-0.4c0-0.6,0-1.2,0-1.9c-0.2,0.1-0.2,0.2-0.3,0.2c-1.9,1.5-4.1,2.4-6.5,2.5c-4.3,0.1-7.3-2.1-8.5-6.1
		c-0.4-1.3-0.5-2.7-0.5-4.1c0-4.4,0-8.7,0-13.1c0-1.3,0.1-2.7-0.5-4c2.3,0,4.5,0,6.8,0c0,0.1,0,0.3,0,0.4c0,4.8,0,9.6,0,14.4
		c0,0.8,0.1,1.6,0.2,2.4c0.1,0.6,0.3,1.2,0.5,1.8c0.5,1.1,1.3,1.8,2.5,2.1c1.6,0.3,3.2,0.2,4.7-0.6c0.6-0.3,1-0.8,1.5-1.2
		c0.2-0.2,0.2-0.4,0.2-0.6c0-6,0-12.1,0-18.1c0-0.5-0.1-0.5,0.5-0.5c1.8,0,3.6,0,5.5,0C218.2,20.5,218.3,20.5,218.5,20.5z"/>
	<path class="st0" d="M96.1,47.2c-0.1,0-0.2,0-0.3,0c-1.9,0-3.8,0-5.8,0c-0.3,0-0.4-0.1-0.4-0.4c0-0.6,0-1.2,0-1.9
		c-0.2,0.1-0.3,0.2-0.3,0.3c-1.6,1.3-3.5,2.1-5.5,2.4c-1.8,0.2-3.6,0.1-5.2-0.7c-2.2-1.1-3.6-2.9-4.3-5.3c-0.4-1.3-0.6-2.7-0.6-4.1
		c0-4.2,0-8.4,0-12.6c0-0.9,0-1.7-0.1-2.6c0-0.6-0.2-1.1-0.3-1.6c0-0.1,0-0.1,0-0.2c2.2,0,4.4,0,6.7,0c0,0.1,0,0.3,0,0.4
		c0,4.8,0,9.6,0,14.4c0,0.8,0.1,1.6,0.2,2.4c0.1,0.6,0.3,1.2,0.6,1.8c0.5,1,1.2,1.7,2.4,1.9c1.7,0.4,3.3,0.3,4.8-0.6
		c0.6-0.3,1-0.8,1.5-1.2c0.2-0.2,0.3-0.4,0.3-0.6c0-6,0-12,0-18.1c0-0.2,0-0.3,0-0.5c0.1,0,0.3,0,0.4,0c1.8,0,3.7,0,5.5,0
		c0.4,0,0.4,0,0.4,0.4c0,7.6,0,15.2,0,22.9C96,44.9,96.1,46,96.1,47.2z"/>
	<path class="st0" d="M133.7,38.7c0.1,0.1,0.1,0.1,0.2,0.1c0.7,0.8,1.5,1.3,2.4,1.7c2.2,1,4.5,1.6,6.9,1.7c1,0.1,2,0.1,3-0.1
		c0.4-0.1,0.8-0.2,1.2-0.4c1-0.5,1.5-1.5,1.4-2.5c-0.1-0.7-0.4-1.1-1-1.3c-1-0.5-2-0.7-3.1-0.9c-1.6-0.3-3.2-0.6-4.7-0.9
		c-0.8-0.2-1.6-0.6-2.4-1c-2.9-1.5-4.2-3.8-4.1-7c0.1-2.7,1.4-4.8,3.7-6.3c1.5-1,3.2-1.4,5-1.7c2.3-0.3,4.7-0.3,7,0.4
		c1.7,0.5,3.3,1.2,4.7,2.3c0.1,0.1,0.2,0.3,0.2,0.3c-0.6,1.7-1.2,3.5-1.8,5.2c-0.1,0-0.1,0-0.2,0.1c0-0.1-0.1-0.2-0.1-0.2
		c-0.6-0.9-1.4-1.4-2.3-1.9c-2.3-1.1-4.8-1.4-7.3-0.9c-0.6,0.1-1.1,0.3-1.6,0.7c-0.7,0.5-1,1.3-0.9,2.2c0,0.6,0.4,1,0.9,1.2
		c0.9,0.5,1.8,0.8,2.8,1.1c1.2,0.3,2.5,0.5,3.7,0.7c1.4,0.3,2.8,0.6,4.1,1.4c2,1.2,3.3,2.9,3.6,5.2c0.4,2.4,0,4.6-1.6,6.4
		c-0.9,1.1-2.1,1.8-3.4,2.4c-1.4,0.6-2.9,0.9-4.4,1c-2.5,0.2-5.1,0-7.6-0.5c-1.7-0.3-3.3-0.9-4.7-1.9c-0.2-0.1-0.3-0.3-0.3-0.6
		c0.2-1.9,0.4-3.8,0.6-5.6C133.6,38.9,133.7,38.8,133.7,38.7z"/>
</g>
</svg>
